<?xml version="1.0" encoding="UTF-8"?>
<!DOCTYPE svg PUBLIC "-//W3C//DTD SVG 1.1//EN" "http://www.w3.org/Graphics/SVG/1.1/DTD/svg11.dtd">
<!-- Creator: CorelDRAW X5 -->
<svg xmlns="http://www.w3.org/2000/svg" xml:space="preserve" width="69.4267mm" height="35.1367mm" style="shape-rendering:geometricPrecision; text-rendering:geometricPrecision; image-rendering:optimizeQuality; fill-rule:evenodd; clip-rule:evenodd"
viewBox="0 0 6342 3210"
 xmlns:xlink="http://www.w3.org/1999/xlink">
 <defs>
  <style type="text/css">
   <![CDATA[
    .fil2 {fill:none}
    .fil0 {fill:#224F8F}
    .fil1 {fill:#373435;fill-rule:nonzero}
   ]]>
  </style>
 </defs>
 <g id="Capa_x0020_1">
  <metadata id="CorelCorpID_0Corel-Layer"/>
  <path class="fil0" d="M3343 444l0 60c2,-2 4,-4 5,-5 105,-91 243,49 258,45l-3 158c0,14 -36,-71 -91,-85 -57,-17 -121,26 -116,109 -4,108 81,151 167,86 93,-57 227,-16 256,130 -4,485 -427,554 -484,553l2 -150c86,-2 324,-110 333,-323 0,-32 15,-124 -135,-40 -63,24 -145,7 -192,-6l0 112 -125 0 1 -277 -329 207c27,171 172,304 335,326l0 154c-255,-34 -468,-256 -464,-525 0,-319 265,-562 582,-527zm-8 1254c379,-30 677,-347 678,-732 1,-379 -289,-703 -676,-737l0 114c329,34 561,309 562,620 -2,317 -234,584 -563,620l0 114zm-112 -1469c-379,30 -677,347 -678,732 -1,379 289,703 676,737l0 -114c-329,-34 -561,-309 -562,-620 2,-317 234,-584 563,-620l0 -114zm-3 325c-170,19 -307,171 -330,352l330 -203 0 -149z"/>
  <path class="fil1" d="M597 2003l-48 45c-32,-34 -69,-51 -109,-51 -34,0 -63,12 -86,35 -23,23 -35,52 -35,86 0,24 5,45 16,63 10,18 25,33 44,44 19,11 40,16 63,16 20,0 38,-4 54,-11 16,-7 34,-21 54,-40l46 48c-26,26 -51,44 -75,54 -23,10 -50,15 -80,15 -56,0 -101,-18 -137,-53 -35,-35 -53,-80 -53,-135 0,-36 8,-67 24,-95 16,-28 39,-50 69,-67 30,-17 62,-25 97,-25 29,0 58,6 85,19 27,12 51,30 71,53zm169 -63l68 0 137 357 -71 0 -28 -74 -146 0 -29 74 -71 0 138 -357zm34 95l-48 123 97 0 -48 -123zm13 -218l78 0 -89 95 -48 0 58 -95zm246 123l66 0 83 249 84 -249 66 0 60 357 -66 0 -38 -226 -76 226 -60 0 -75 -226 -39 226 -66 0 62 -357zm523 0l68 0 137 357 -71 0 -28 -74 -146 0 -29 74 -71 0 138 -357zm34 95l-48 123 97 0 -48 -123zm229 -95l72 0c39,0 68,3 84,11 17,7 30,19 40,35 10,16 15,36 15,58 0,23 -6,43 -17,59 -11,16 -28,28 -51,36l84 159 -74 0 -80 -151 -7 0 0 151 -68 0 0 -357zm68 140l22 0c22,0 37,-3 45,-9 8,-6 12,-15 12,-28 0,-8 -2,-15 -6,-20 -4,-6 -10,-10 -16,-12 -7,-3 -19,-4 -38,-4l-19 0 0 74zm326 -140l69 0 137 357 -71 0 -28 -74 -146 0 -29 74 -71 0 138 -357zm34 95l-48 123 97 0 -48 -123zm364 -95l81 0c52,0 90,6 116,19 25,13 46,34 62,63 16,29 24,63 24,101 0,28 -5,53 -14,76 -9,23 -22,42 -38,57 -16,15 -34,26 -52,32 -19,6 -51,9 -98,9l-82 0 0 -357zm68 66l0 225 32 0c31,0 54,-4 68,-11 14,-7 25,-19 34,-36 9,-17 13,-38 13,-62 0,-38 -11,-67 -32,-88 -19,-19 -50,-28 -92,-28l-23 0zm281 -66l195 0 0 67 -127 0 0 64 127 0 0 66 -127 0 0 94 127 0 0 67 -195 0 0 -357zm726 63l-48 45c-32,-34 -69,-51 -109,-51 -34,0 -63,12 -86,35 -23,23 -35,52 -35,86 0,24 5,45 16,63 10,18 25,33 44,44 19,11 40,16 63,16 20,0 38,-4 54,-11 16,-7 34,-21 54,-40l46 48c-26,26 -51,44 -75,54 -23,10 -50,15 -80,15 -56,0 -101,-18 -136,-53 -35,-35 -53,-80 -53,-135 0,-36 8,-67 24,-95 16,-28 39,-50 69,-67 30,-17 62,-25 97,-25 29,0 58,6 85,19 27,12 51,30 71,53zm228 -72c51,0 94,18 130,55 36,37 55,81 55,134 0,52 -18,96 -54,132 -36,36 -79,54 -131,54 -54,0 -98,-19 -134,-56 -35,-37 -53,-81 -53,-132 0,-34 8,-66 25,-94 17,-29 39,-51 68,-68 29,-17 60,-25 93,-25zm-1 67c-33,0 -61,12 -83,34 -22,23 -34,52 -34,88 0,39 14,71 42,94 22,18 47,27 76,27 32,0 59,-12 82,-35 23,-23 34,-52 34,-86 0,-34 -11,-63 -34,-86 -23,-24 -50,-35 -83,-35zm285 -58l66 0 83 249 84 -249 66 0 60 357 -66 0 -38 -226 -76 226 -60 0 -75 -226 -39 226 -66 0 62 -357zm414 0l195 0 0 67 -127 0 0 64 127 0 0 66 -127 0 0 94 127 0 0 67 -195 0 0 -357zm263 0l72 0c39,0 68,3 84,11 17,7 30,19 40,35 10,16 15,36 15,58 0,23 -6,43 -17,59 -11,16 -28,28 -51,36l84 159 -74 0 -80 -151 -7 0 0 151 -68 0 0 -357zm68 140l22 0c22,0 37,-3 45,-9 8,-6 12,-15 12,-28 0,-8 -2,-15 -6,-20 -4,-6 -10,-10 -16,-12 -7,-3 -19,-4 -38,-4l-19 0 0 74zm545 -77l-48 45c-32,-34 -69,-51 -109,-51 -34,0 -63,12 -86,35 -23,23 -35,52 -35,86 0,24 5,45 16,63 10,18 25,33 44,44 19,11 40,16 63,16 20,0 38,-4 54,-11 16,-7 34,-21 54,-40l46 48c-26,26 -51,44 -75,54 -23,10 -50,15 -80,15 -56,0 -101,-18 -137,-53 -35,-35 -53,-80 -53,-135 0,-36 8,-67 24,-95 16,-28 39,-50 69,-67 30,-17 62,-25 97,-25 29,0 58,6 85,19 27,12 51,30 71,53zm55 -63l68 0 0 357 -68 0 0 -357zm313 -9c50,0 94,18 130,55 36,37 55,81 55,134 0,52 -18,96 -54,132 -36,36 -79,54 -131,54 -54,0 -98,-19 -134,-56 -35,-37 -53,-81 -53,-132 0,-34 8,-66 25,-94 17,-29 39,-51 68,-68 29,-17 60,-25 93,-25zm-1 67c-33,0 -61,12 -83,34 -22,23 -34,52 -34,88 0,39 14,71 42,94 22,18 47,27 76,27 32,0 59,-12 82,-35 23,-23 34,-52 34,-86 0,-34 -11,-63 -34,-86 -23,-24 -50,-35 -83,-35zm-4033 545l68 0 137 357 -71 0 -28 -74 -146 0 -29 74 -71 0 138 -357zm34 95l-48 123 97 0 -48 -123zm224 262l0 -357 56 0c33,0 57,2 72,6 21,6 39,16 51,32 13,15 19,34 19,54 0,14 -3,26 -9,37 -6,11 -15,22 -28,31 22,10 37,23 48,38 10,15 15,33 15,54 0,20 -5,38 -16,55 -10,17 -24,29 -40,37 -16,8 -39,12 -68,12l-101 0zm68 -293l0 76 15 0c17,0 30,-3 38,-11 8,-7 12,-16 12,-29 0,-11 -4,-20 -12,-27 -8,-7 -20,-10 -36,-10l-18 0zm0 136l0 92 17 0c29,0 48,-4 58,-11 10,-7 15,-17 15,-31 0,-15 -6,-28 -18,-36 -12,-9 -31,-13 -58,-13l-14 0zm219 -201l68 0 0 231c0,20 2,34 5,42 3,8 9,15 17,20 8,5 18,7 29,7 12,0 22,-3 31,-8 9,-5 15,-12 18,-21 3,-8 5,-25 5,-49l0 -223 68 0 0 213c0,36 -2,61 -6,75 -4,14 -12,27 -23,40 -11,13 -25,23 -39,29 -15,6 -32,9 -52,9 -26,0 -48,-6 -68,-18 -19,-12 -33,-27 -41,-45 -8,-18 -12,-48 -12,-91l0 -213zm325 0l72 0c39,0 68,3 84,11 17,7 30,19 40,35 10,16 15,36 15,58 0,23 -6,43 -17,59 -11,16 -28,28 -51,36l84 159 -74 0 -80 -151 -7 0 0 151 -68 0 0 -357zm68 140l22 0c22,0 37,-3 45,-9 8,-6 12,-15 12,-28 0,-8 -2,-15 -6,-20 -4,-6 -10,-10 -16,-12 -7,-3 -19,-4 -38,-4l-19 0 0 74zm221 -140l72 0c39,0 68,3 84,11 17,7 30,19 40,35 10,16 15,36 15,58 0,23 -6,43 -17,59 -11,16 -28,28 -51,36l84 159 -74 0 -80 -151 -7 0 0 151 -68 0 0 -357zm68 140l22 0c22,0 37,-3 45,-9 8,-6 12,-15 12,-28 0,-8 -2,-15 -6,-20 -4,-6 -10,-10 -16,-12 -7,-3 -19,-4 -38,-4l-19 0 0 74zm326 -140l68 0 137 357 -71 0 -28 -74 -146 0 -29 74 -71 0 138 -357zm34 95l-48 123 97 0 -48 -123zm13 -218l78 0 -89 95 -48 0 58 -95zm538 171l-50 44c-18,-25 -36,-37 -54,-37 -9,0 -16,2 -22,7 -6,5 -9,10 -9,16 0,6 2,12 6,17 6,7 22,22 50,46 26,22 42,35 47,41 14,14 24,27 29,40 6,13 9,27 9,42 0,29 -10,53 -30,73 -20,19 -47,29 -79,29 -25,0 -48,-6 -67,-19 -19,-13 -35,-32 -49,-59l57 -34c17,32 37,47 59,47 12,0 22,-3 30,-10 8,-7 12,-15 12,-24 0,-8 -3,-16 -9,-24 -6,-8 -19,-20 -40,-37 -39,-32 -64,-56 -75,-73 -11,-17 -17,-34 -17,-52 0,-25 9,-46 28,-64 19,-18 42,-27 70,-27 18,0 35,4 51,12 16,8 34,23 52,45zm69 -49l68 0 0 231c0,20 2,34 5,42 3,8 9,15 17,20 8,5 18,7 29,7 12,0 22,-3 31,-8 9,-5 15,-12 18,-21 3,-8 5,-25 5,-49l0 -223 68 0 0 213c0,36 -2,61 -6,75 -4,14 -12,27 -23,40 -11,13 -25,23 -39,29 -15,6 -32,9 -52,9 -26,0 -48,-6 -68,-18 -19,-12 -33,-27 -41,-45 -8,-18 -12,-48 -12,-91l0 -213zm325 0l72 0c39,0 68,3 84,11 17,7 30,19 40,35 10,16 15,36 15,58 0,23 -6,43 -17,59 -11,16 -28,28 -51,36l84 159 -74 0 -80 -151 -7 0 0 151 -68 0 0 -357zm68 140l22 0c22,0 37,-3 45,-9 8,-6 12,-15 12,-28 0,-8 -2,-15 -6,-20 -4,-6 -10,-10 -16,-12 -7,-3 -19,-4 -38,-4l-19 0 0 74z"/>
  <rect class="fil2" width="6342" height="3210"/>
 </g>
</svg>
