<?xml version="1.0" encoding="UTF-8"?>
<!DOCTYPE svg PUBLIC "-//W3C//DTD SVG 1.1//EN" "http://www.w3.org/Graphics/SVG/1.1/DTD/svg11.dtd">
<!-- Creator: CorelDRAW X5 -->
<svg xmlns="http://www.w3.org/2000/svg" xml:space="preserve" width="30.4239mm" height="30.4239mm" style="shape-rendering:geometricPrecision; text-rendering:geometricPrecision; image-rendering:optimizeQuality; fill-rule:evenodd; clip-rule:evenodd"
viewBox="0 0 3042 3042"
 xmlns:xlink="http://www.w3.org/1999/xlink">
 <defs>
  <style type="text/css">
   <![CDATA[
    .fil1 {fill:none}
    .fil0 {fill:#224F8F}
   ]]>
  </style>
 </defs>
 <g id="Capa_x0020_1">
  <metadata id="CorelCorpID_0Corel-Layer"/>
  <path class="fil0" d="M1640 560l0 110c3,-4 7,-7 9,-9 194,-168 449,90 477,84l-5 292c0,25 -67,-131 -168,-157 -105,-31 -223,49 -215,201 -8,201 150,279 308,158 171,-106 419,-30 473,240 -7,897 -790,1024 -894,1023l4 -278c160,-4 600,-203 616,-598 0,-59 28,-229 -250,-73 -117,44 -269,13 -355,-12l0 207 -231 1 3 -513 -608 382c50,317 318,562 620,603l0 285c-472,-63 -865,-474 -859,-971 0,-591 490,-1040 1076,-975zm-15 2320c701,-56 1253,-641 1254,-1353 3,-702 -535,-1300 -1251,-1364l0 210c608,63 1038,571 1039,1148 -3,587 -433,1081 -1041,1148l-1 212zm-207 -2717c-701,56 -1253,641 -1254,1353 -3,702 535,1300 1251,1364l0 -210c-608,-63 -1038,-571 -1039,-1148 3,-587 433,-1081 1041,-1148l1 -212zm-6 602c-314,36 -568,317 -610,650l610 -375 0 -275z"/>
  <rect class="fil1" width="3042" height="3042"/>
 </g>
</svg>
